<svg xmlns="http://www.w3.org/2000/svg" width="25" height="29" fill="none"><path fill="white" d="M0 24.16c0 2.864 6.48 4.167 12.5 4.167S25 27.024 25 24.161c0-2.274-3.935-3.3-6.77-3.744l1.937-1.923a10.834 10.834 0 1 0-15.32 0l1.93 1.93C3.935 20.861 0 21.887 0 24.161Zm14.167-17.5a.834.834 0 0 1 1.333-.666 9.167 9.167 0 0 1 3.632 6.547 1.655 1.655 0 0 1-1.254 1.76l-2.045.511v1.849a.834.834 0 1 1-1.666 0v-10Zm-7.5 1.667V6.661a.833.833 0 1 1 1.666 0v1.666a1.642 1.642 0 0 0 .834 1.41V6.661a.833.833 0 1 1 1.666 0v3.076a1.641 1.641 0 0 0 .834-1.41V6.661a.834.834 0 0 1 1.666 0v1.666a3.333 3.333 0 0 1-2.5 3.215v5.119a.834.834 0 1 1-1.666 0v-5.119a3.333 3.333 0 0 1-2.5-3.215Zm1.59 13.577 2.475 2.477a2.497 2.497 0 0 0 3.536 0l2.475-2.477c4.58.53 6.59 1.737 6.59 2.257 0 .746-3.685 2.5-10.833 2.5s-10.833-1.754-10.833-2.5c0-.52 2.01-1.727 6.59-2.257Z"/></svg>